<svg width="20" height="20" viewBox="0 0 20 20" fill="none" xmlns="http://www.w3.org/2000/svg">
<g clip-path="url(#clip0)">
<path fill-rule="evenodd" clip-rule="evenodd" d="M2.54569 2.56197C5.94212 -0.834458 11.4646 -0.834458 14.861 2.56197C18.1018 5.80283 18.2367 10.9882 15.281 14.4054L19.7975 18.9218C20.0464 19.1707 20.0464 19.57 19.7975 19.8137C19.673 19.9382 19.5123 20.0004 19.3515 20.0004C19.1908 20.0004 19.03 19.9382 18.9056 19.8137L14.3891 15.2973C12.7609 16.7077 10.7334 17.4181 8.70074 17.4181C6.47103 17.4181 4.24131 16.5677 2.54569 14.8721C-0.850731 11.4808 -0.850731 5.95321 2.54569 2.56197ZM3.43758 13.9802C6.34139 16.884 11.0601 16.884 13.9639 13.9802C16.8677 11.0764 16.8677 6.35767 13.9639 3.45385C12.512 2.00195 10.609 1.27599 8.70074 1.27599C6.79252 1.27599 4.88949 2.00195 3.43758 3.45385C0.538952 6.35767 0.538952 11.0764 3.43758 13.9802Z" fill="white"/>
</g>
<defs>
<clipPath id="clip0">
<rect width="20" height="20" fill="white" transform="matrix(-1 0 0 1 20 0)"/>
</clipPath>
</defs>
</svg>
